<svg xmlns="http://www.w3.org/2000/svg" viewBox="0 0 64 64" width="64" height="64" role="img" aria-label="SolaraX">
  <title>SolaraX</title>
  <path d="M 45.25 53.20 A 25.00 25.00 0 0 1 10.80 18.75" fill="none" stroke="#192C4C" stroke-width="7"/>
  <path d="M 18.75 10.80 A 25.00 25.00 0 0 1 53.20 45.25" fill="none" stroke="#192C4C" stroke-width="7"/>
  <path d="M 32.00 17.00 L 35.29 24.05 L 42.61 21.39 L 39.95 28.71 L 47.00 32.00 L 39.95 35.29 L 42.61 42.61 L 35.29 39.95 L 32.00 47.00 L 28.71 39.95 L 21.39 42.61 L 24.05 35.29 L 17.00 32.00 L 24.05 28.71 L 21.39 21.39 L 28.71 24.05 Z M 32.00 32.00 a 0.00 0.00 0 1 0 0.00 0 a 0.00 0.00 0 1 0 -0.00 0 Z" fill="#E3A246"/>
  <circle cx="49.68" cy="14.32" r="6.5" fill="#E3A246"/>
</svg>
